<?xml version="1.0" encoding="utf-8"?>
<!-- Generator: Adobe Illustrator 23.0.4, SVG Export Plug-In . SVG Version: 6.00 Build 0)  -->
<svg version="1.1" xmlns="http://www.w3.org/2000/svg" xmlns:xlink="http://www.w3.org/1999/xlink" x="0px" y="0px"
	 viewBox="0 0 550 654" style="enable-background:new 0 0 550 654;" xml:space="preserve">
<style type="text/css">
	.st0{fill:url(#SVGID_1_);}
	.st1{fill:#FFFFFF;}
	.st2{fill:#FBFCFC;}
	.st3{fill-rule:evenodd;clip-rule:evenodd;fill:#15293B;}
	.st4{fill-rule:evenodd;clip-rule:evenodd;fill:url(#SVGID_2_);}
	.st5{fill-rule:evenodd;clip-rule:evenodd;fill:#FBFCFC;}
	.st6{fill-rule:evenodd;clip-rule:evenodd;fill:#ECEEF1;}
	.st7{fill-rule:evenodd;clip-rule:evenodd;fill:url(#SVGID_3_);}
	.st8{fill-rule:evenodd;clip-rule:evenodd;fill:#F5F7F8;}
	.st9{fill-rule:evenodd;clip-rule:evenodd;fill:url(#SVGID_4_);}
	.st10{fill-rule:evenodd;clip-rule:evenodd;fill:#293B4E;}
	.st11{fill:#ECEEF1;}
	.st12{fill-rule:evenodd;clip-rule:evenodd;fill:#A1123E;}
	.st13{fill-rule:evenodd;clip-rule:evenodd;fill:#FFFFFF;}
	.st14{fill-rule:evenodd;clip-rule:evenodd;fill:url(#SVGID_5_);}
	.st15{fill:url(#SVGID_6_);}
	.st16{fill:#15293B;}
	.st17{opacity:0.5;fill:#00AEEF;}
	.st18{fill:#00AEEF;}
	.st19{fill:#0098E9;}

	.block1{
		opacity: 0;
		animation: block1 7s .5s linear normal infinite;
	}
	
	.block2{
		opacity: 0;
		animation: block2 7s .5s linear normal infinite;
	}
	
	.block3{
		opacity: 0;
		animation: block3 7s .5s linear normal infinite;
	}
	
	.block4{
		opacity: 0;
		animation: block4 7s .5s linear normal infinite;
	}
	
	.block5{
		opacity: 0;
		animation: block5 7s .5s linear normal infinite;
	}
	
	.block6{
		opacity: 0;
		animation: block6 7s .5s linear normal infinite;
	}
	
	
	.block7{
		opacity: 0;
		animation: block7 7s .5s linear normal infinite;
	}
	
	.block8{
		opacity: 0;
		animation: block8 7s .5s linear normal infinite;
	}
	
	.block9{
		opacity: 0;
		animation: block9 7s .5s linear normal infinite;
	}
	
	.block10{
		opacity: 0;
		animation: block10 7s .5s linear normal infinite;
	}
	
	.block11{
		opacity: 0;
		animation: block11 7s .5s linear normal infinite;
	}
	
	.block12{
		opacity: 0;
		animation: block12 7s .5s linear normal infinite;
	}
	
	.block13{
		opacity: 0;
		animation: block13 7s .5s linear normal infinite;
	}
	
	.block14{
		opacity: 0;
		animation: block14 7s .5s linear normal infinite;
	}
	
	.block15{
		opacity: 0;
		animation: block15 7s .5s linear normal infinite;
	}
	
	.block16{
		opacity: 0;
		animation: block16 7s .5s linear normal infinite;
	}
	
	.block17{
		opacity: 0;
		animation: block17 7s .5s linear normal infinite;
	}
	
	.block18{
		opacity: 0;
		animation: block18 7s .5s linear normal infinite;
	}
	
	.block19{
		opacity: 0;
		animation: block19 7s .5s linear normal infinite;
	}
	
	.block20{
		opacity: 0;
		animation: block20 7s .5s linear normal infinite;
	}
	
	.block21{
		opacity: 0;
		animation: block21 7s .5s linear normal infinite;
	}
	
	.block22{
		opacity: 0;
		animation: block22 7s .5s linear normal infinite;
	}
	
	.block23{
		opacity: 0;
		animation: block23 7s .5s linear normal infinite;
	}
	
	.block24{
		opacity: 0;
		animation: block24 7s .5s linear normal infinite;
	}
	
	.block25{
		opacity: 0;
		animation: block251 7s .5s linear normal infinite;
	}
		
	
	@keyframes block1 {
    	0% {opacity:0}
		.25% {opacity:0}
		15.25% {opacity:1}
		60% {opacity:1}
		75% {opacity:0}
		100% {opacity:0}															
	}
	
	@keyframes block2 {
    	0% {opacity:0}
		.5% {opacity:0}
		15.5% {opacity:1}
		60% {opacity:1}
		75% {opacity:0}
		100% {opacity:0}															
	}
	
	@keyframes block3 {
    	0% {opacity:0}
		.75% {opacity:0}
		15.75% {opacity:1}
		60% {opacity:1}
		75% {opacity:0}
		100% {opacity:0}															
	}
	
	@keyframes block4 {
    	0% {opacity:0}
		1% {opacity:0}
		16% {opacity:1}
		60% {opacity:1}
		75% {opacity:0}
		100% {opacity:0}															
	}
	
	@keyframes block5 {
    	0% {opacity:0}
		1.25% {opacity:0}
		16.25% {opacity:1}
		60% {opacity:1}
		75% {opacity:0}
		100% {opacity:0}															
	}
	
	@keyframes block6 {
    	0% {opacity:0}
		1.5% {opacity:0}
		16.5% {opacity:1}
		60% {opacity:1}
		75% {opacity:0}
		100% {opacity:0}															
	}
	
	@keyframes block7 {
    	0% {opacity:0}
		1.75% {opacity:0}
		16.75% {opacity:1}
		60% {opacity:1}
		75% {opacity:0}
		100% {opacity:0}															
	}
	
	@keyframes block8 {
    	0% {opacity:0}
		2% {opacity:0}
		17% {opacity:1}
		60% {opacity:1}
		75% {opacity:0}
		100% {opacity:0}															
	}
	
	@keyframes block9 {
    	0% {opacity:0}
		2.25% {opacity:0}
		17.25% {opacity:1}
		60% {opacity:1}
		75% {opacity:0}
		100% {opacity:0}															
	}
	
	@keyframes block10 {
    	0% {opacity:0}
		2.5% {opacity:0}
		17.5% {opacity:1}
		60% {opacity:1}
		75% {opacity:0}
		100% {opacity:0}															
	}
	
	@keyframes block11 {
    	0% {opacity:0}
		2.75% {opacity:0}
		17.75% {opacity:1}
		60% {opacity:1}
		75% {opacity:0}
		100% {opacity:0}															
	}
	
	@keyframes block12 {
    	0% {opacity:0}
		3% {opacity:0}
		18% {opacity:1}
		60% {opacity:1}
		75% {opacity:0}
		100% {opacity:0}															
	}
	
	@keyframes block13 {
    	0% {opacity:0}
		3.25% {opacity:0}
		18.25% {opacity:1}
		60% {opacity:1}
		75% {opacity:0}
		100% {opacity:0}															
	}
	
	@keyframes block14 {
    	0% {opacity:0}
		3.5% {opacity:0}
		18.5% {opacity:1}
		60% {opacity:1}
		75% {opacity:0}
		100% {opacity:0}															
	}
	
	@keyframes block15 {
    	0% {opacity:0}
		3.75% {opacity:0}
		18.75% {opacity:1}
		60% {opacity:1}
		75% {opacity:0}
		100% {opacity:0}															
	}
		
	@keyframes block16 {
    	0% {opacity:0}
		4% {opacity:0}
		19% {opacity:1}
		60% {opacity:1}
		75% {opacity:0}
		100% {opacity:0}															
	}
		
	@keyframes block17 {
    	0% {opacity:0}
		4.25% {opacity:0}
		19.25% {opacity:1}
		60% {opacity:1}
		75% {opacity:0}
		100% {opacity:0}															
	}
		
	@keyframes block18 {
    	0% {opacity:0}
		4.5% {opacity:0}
		19.5% {opacity:1}
		60% {opacity:1}
		75% {opacity:0}
		100% {opacity:0}															
	}
		
	@keyframes block19 {
    	0% {opacity:0}
		4.75% {opacity:0}
		19.75% {opacity:1}
		60% {opacity:1}
		75% {opacity:0}
		100% {opacity:0}															
	}
		
	@keyframes block20 {
    	0% {opacity:0}
		5% {opacity:0}
		20% {opacity:1}
		60% {opacity:1}
		75% {opacity:0}
		100% {opacity:0}															
	}
		
	@keyframes block21 {
    	0% {opacity:0}
		5.25% {opacity:0}
		20.25% {opacity:1}
		60% {opacity:1}
		75% {opacity:0}
		100% {opacity:0}															
	}
		
	@keyframes block22 {
    	0% {opacity:0}
		5.5% {opacity:0}
		20.5% {opacity:1}
		60% {opacity:1}
		75% {opacity:0}
		100% {opacity:0}															
	}
		
	@keyframes block23 {
    	0% {opacity:0}
		5.75% {opacity:0}
		20.75% {opacity:1}
		60% {opacity:1}
		75% {opacity:0}
		100% {opacity:0}															
	}
		
	@keyframes block24 {
    	0% {opacity:0}
		6% {opacity:0}
		21% {opacity:1}
		60% {opacity:1}
		75% {opacity:0}
		100% {opacity:0}															
	}
		
	@keyframes block25 {
    	0% {opacity:0}
		6.25% {opacity:0}
		21.25% {opacity:1}
		60% {opacity:1}
		75% {opacity:0}
		100% {opacity:0}															
	}
	

</style>
<g id="background">
	<title>geotab-customer-data-privacy-illustration</title>
	<linearGradient id="SVGID_1_" gradientUnits="userSpaceOnUse" x1="178.7192" y1="94.9149" x2="437.2111" y2="307.9861">
		<stop  offset="4.435489e-04" style="stop-color:#0080B2"/>
		<stop  offset="1" style="stop-color:#25477B"/>
	</linearGradient>
	<path class="st0" d="M132.431,283.236c-37.759-0.003-68.714-30.745-69.003-68.529c-0.141-18.452,6.914-35.852,19.866-48.996
		c11.598-11.77,26.678-18.864,42.949-20.314c6.661-15.476,17.41-29.358,30.746-39.577c14.797-11.338,32.15-18.123,50.566-19.834
		c6.702-23.072,20.448-43.816,39.23-59.001c20.75-16.775,46.878-26.126,73.571-26.33l0.885-0.004
		c30.13,0,58.817,11.317,80.812,31.865c18.504,17.287,30.953,40.029,35.561,64.705c19.705,2.717,38.048,11.768,52.316,25.949
		c17.388,17.282,27.067,40.304,27.255,64.825c0.188,24.617-9.245,47.858-26.561,65.441s-40.411,27.37-65.029,27.559l-293.128,2.241
		H132.431z"/>
	<path class="st1" d="M132.432,273.616c-32.495-0.002-59.134-26.462-59.383-58.982c-0.121-15.881,5.951-30.858,17.098-42.17
		c11.142-11.307,26.016-17.601,41.884-17.722c0,0,0.721-0.001,0.886,0.001c5.697-16.237,16.205-30.774,29.924-41.286
		c15.134-11.596,33.19-17.9,52.279-18.263c10.959-49.102,54.507-84.529,105.31-84.918l0.848-0.003c27.646,0,54,10.397,74.207,29.275
		c18.877,17.635,30.743,41.102,33.753,66.54c20.342,1.037,39.347,9.433,53.909,23.908c15.577,15.483,24.248,36.107,24.416,58.075
		c0.349,45.586-36.455,82.957-82.043,83.306L132.432,273.616z"/>
	<g>
		<path class="st2" d="M321.045,645.179h-95.803c-121.043,0-219.167,1.829-219.167,4.085c0,2.256,98.124,4.085,219.167,4.085
			h104.591c121.042,0,219.167-1.829,219.167-4.085c0-2.256-98.124-4.085-219.167-4.085H321.045"/>
		<rect x="46.338" y="559.686" class="st3" width="99.691" height="57.388"/>
		<linearGradient id="SVGID_2_" gradientUnits="userSpaceOnUse" x1="95.7863" y1="565.7893" x2="95.7863" y2="651.5259">
			<stop  offset="0" style="stop-color:#15293B"/>
			<stop  offset="1" style="stop-color:#293B4E"/>
		</linearGradient>
		<path class="st4" d="M95.776,651.616c23.098,0,41.927-18.829,41.927-41.906c0-23.098-18.829-41.907-41.927-41.907
			c-23.076,0-41.906,18.809-41.906,41.907C53.87,632.786,72.699,651.616,95.776,651.616L95.776,651.616z"/>
		<rect x="390.29" y="559.686" class="st3" width="99.671" height="57.388"/>
		<path class="st5" d="M92.659,523.554c-58.016,9.289-92.37,32.45-91.658,63.56c0.544,23.39,4.77,40.714,20.357,40.504l27.659-0.356
			V609.71c0-25.838,20.943-46.781,46.781-46.781c25.817,0,46.759,20.943,46.759,46.781v16.318l250.39-3.305V609.71
			c0-25.838,20.943-46.781,46.781-46.781s46.781,20.943,46.781,46.781v11.779l38.852-0.503c26.55-0.355,26.215-25.126,19.896-67.179
			c-4.539-30.357-18.704-46.195-45.337-46.656c-20.733-0.356-44.061-17.491-78.226-32.157
			c-37.052-15.921-76.929-23.035-114.818-21.989c-65.903,1.82-110.76,25.713-169.13,61.489
			C126.823,521.19,110.693,520.667,92.659,523.554L92.659,523.554z"/>
		<path class="st6" d="M3.825,611.237c2.824,10.189,8.096,16.507,17.532,16.382l27.659-0.356v-16.611L3.825,611.237z
			 M142.557,609.416v0.294v16.318l250.39-3.305V609.71c0-1.214,0.063-2.406,0.147-3.599L142.557,609.416z M486.258,604.877
			c0.167,1.59,0.251,3.202,0.251,4.833v11.779l38.852-0.503c12.867-0.167,19.415-6.088,22.03-16.904L486.258,604.877z"/>
		<linearGradient id="SVGID_3_" gradientUnits="userSpaceOnUse" x1="3.4065" y1="561.1797" x2="49.8754" y2="561.1797">
			<stop  offset="0" style="stop-color:#EA184D"/>
			<stop  offset="1" style="stop-color:#A1123E"/>
		</linearGradient>
		<path class="st7" d="M6.671,572.511c-1.193,0.062-2.28,0.084-3.264,0.042c2.783-7.553,7.908-14.499,15.21-20.67
			c10.649-2.469,20.545-2.762,29.729-0.858c0.732,0.146,2.093,0.753,1.277,2.322c-0.858,1.653-5.148,7.364-6.842,9.018
			c-3.809,3.724-12.804,3.871-21.194,4.77c-2.511,0.251-4.686,1.256-6.716,2.804C12.361,571.883,9.558,572.344,6.671,572.511
			L6.671,572.511z"/>
		<path class="st8" d="M143.791,544.978c134.84-10.691,263.989-18.243,389.017-23.516c6.319,7.72,10.378,18.536,12.448,32.345
			c6.319,42.053,6.653,66.824-19.896,67.179l-38.852,0.503V609.71c0-25.838-20.943-46.781-46.781-46.781
			s-46.781,20.943-46.781,46.781v13.013l-250.39,3.305c0-5.753,0.461-16.738-0.502-23.243
			c-3.348-22.638-22.889-39.856-46.258-39.856c-25.838,0-46.781,20.943-46.781,46.781v17.552l-4.08,0.042
			c-8.892-25.671,2.657-50.107,22.197-62.827C85.21,552.677,122.513,546.673,143.791,544.978L143.791,544.978z"/>
		<path class="st6" d="M547.391,604.082c-2.615,10.816-9.164,16.736-22.03,16.904l-38.852,0.503V609.71
			c0-1.632-0.084-3.243-0.251-4.833L547.391,604.082z M393.094,606.11c-0.084,1.194-0.147,2.386-0.147,3.599v13.013l-250.39,3.305
			c0-4.08,0.231-10.754,0.021-16.612L393.094,606.11z M49.016,610.651v16.611l-4.08,0.042c-1.946-5.606-2.909-11.172-3.034-16.569
			L49.016,610.651z"/>
		<linearGradient id="SVGID_4_" gradientUnits="userSpaceOnUse" x1="545.7816" y1="536.8557" x2="511.8853" y2="551.2223">
			<stop  offset="0" style="stop-color:#EA184D"/>
			<stop  offset="1" style="stop-color:#A1123E"/>
		</linearGradient>
		<path class="st9" d="M545.006,552.112c-2.992,0.941-6.026,0.628-9.206-0.836c-2.092-0.983-5.063-1.109-8.787-0.774
			c0,0-5.628,0.251-16.905,0.774c4.08-11.591,8.118-17.156,11.801-18.328c5.774-1.862,10.461-4.31,14.164-6.904
			C540.319,532.885,543.269,541.589,545.006,552.112L545.006,552.112z"/>
		<path class="st10" d="M496.551,506.942c-19.896-1.987-42.533-18.055-74.858-31.947c-12.009-5.168-24.311-9.394-36.759-12.721
			c25.755,9.561,51.53,22.805,91.742,46.237C483.956,507.842,490.588,507.382,496.551,506.942L496.551,506.942z"/>
		<path class="st11" d="M165.215,535.082c-3.305,9.478-4.498,20.545-3.536,33.872c0.963,13.432,4.122,29.165,9.478,47.89
			l129.61-1.737c-2.364-14.624-3.787-29.583-4.206-44.5c-0.418-14.77,0.146-29.458,1.779-43.663l0.146-1.297
			c-21.738,1.36-43.705,2.804-65.904,4.373C210.364,531.588,187.894,533.283,165.215,535.082L165.215,535.082z M160.717,569.038
			c-0.984-13.62,0.272-24.918,3.682-34.563l0.105-0.293l0.314-0.021c22.763-1.82,45.316-3.515,67.703-5.105
			c22.345-1.569,44.5-3.034,66.489-4.414l0.565-0.021l-0.272,2.427c-1.632,14.164-2.197,28.831-1.779,43.539
			c0.419,15.042,1.883,30.169,4.289,44.918l0.084,0.543c-43.831,0.607-87.641,1.192-131.472,1.757l-0.084-0.355
			C164.88,598.537,161.7,582.616,160.717,569.038L160.717,569.038z"/>
		<path class="st11" d="M368.657,614.208c8.746-11.674,22.282-30.776,34.919-50.045c9.561-14.561,18.6-29.228,24.625-40.797
			c0.502-0.962,0.983-1.904,1.422-2.803c0.293-0.648,0.607-1.318,0.9-1.967c-21.424,0.963-43.015,2.03-64.794,3.18
			c-21.884,1.172-43.957,2.427-66.259,3.808l-0.167,1.465c-1.632,14.164-2.197,28.831-1.779,43.539
			c0.419,14.896,1.862,29.876,4.206,44.5L368.657,614.208z M404.37,564.706c-12.678,19.353-26.32,38.58-35.086,50.254l-0.146,0.189
			c-22.742,0.334-45.484,0.607-68.225,0.921l-0.063-0.419c-2.406-14.792-3.871-29.938-4.289-45.044
			c-0.418-14.77,0.146-29.458,1.779-43.663l0.251-2.26l0.418-0.042c22.386-1.381,44.626-2.657,66.678-3.829
			c22.009-1.172,66.104-3.105,66.104-3.105l-0.076,0.553c-0.355,0.858-0.774,1.757-1.234,2.719c-0.44,0.921-0.921,1.862-1.423,2.825
			C422.991,535.438,413.952,550.104,404.37,564.706L404.37,564.706z"/>
		<path class="st12" d="M6.671,572.511c-1.193,0.062-2.28,0.084-3.264,0.042c0.628-1.715,1.381-3.389,2.26-5.042
			c0.481-0.02,0.963-0.02,1.486-0.063c3.326-0.167,6.548-0.606,9.436-2.552c2.322-1.548,4.833-2.553,7.72-2.824
			c7.804-0.712,16.088-0.942,21.277-2.993c-1.088,1.381-2.154,2.637-2.803,3.285c-3.809,3.724-12.804,3.871-21.194,4.77
			c-2.511,0.251-4.686,1.256-6.716,2.804C12.361,571.883,9.558,572.344,6.671,572.511L6.671,572.511z"/>
		<path class="st12" d="M545.006,552.112c-2.992,0.941-6.026,0.628-9.206-0.836c-2.092-0.983-5.063-1.109-8.787-0.774
			c0,0-5.628,0.251-16.905,0.774c0.691-1.967,1.381-3.745,2.072-5.377l14.833-0.67c3.724-0.334,6.695-0.187,8.787,0.774
			c2.846,1.319,5.565,1.716,8.243,1.088C544.399,548.723,544.713,550.396,545.006,552.112L545.006,552.112z"/>
		<path class="st13" d="M137.117,552.551l12.469-1.506c1.674-0.188,3.223,1.005,3.432,2.699l0,0
			c0.188,1.674-1.005,3.222-2.699,3.411l-12.469,1.506c-1.674,0.209-3.222-1.005-3.41-2.699l0,0
			C134.23,554.288,135.443,552.76,137.117,552.551L137.117,552.551z"/>
		<path class="st6" d="M263.903,543.702l23.85-1.674c1.381-0.104,2.636,0.942,2.804,2.322l0,0c0.167,1.381-0.837,2.594-2.239,2.699
			l-23.851,1.674c-1.38,0.105-2.636-0.962-2.803-2.342l0,0C261.517,544.999,262.522,543.806,263.903,543.702L263.903,543.702z"/>
		<path class="st6" d="M382.486,536.421l23.872-1.213c1.38-0.084,2.636,1.004,2.761,2.385l0,0c0.125,1.381-0.9,2.573-2.28,2.636
			l-23.871,1.213c-1.402,0.084-2.637-1.004-2.762-2.385l0,0C380.059,537.676,381.084,536.484,382.486,536.421L382.486,536.421z"/>
		<path class="st10" d="M235.197,465.287c-31.947,14.624-60.003,28.872-84,55.589c-5.314-4.142-8.201-5.419-13.348-6.444
			C172.663,493.113,202.664,475.999,235.197,465.287L235.197,465.287z"/>
		<path class="st6" d="M95.797,576.507c-18.349,0-33.203,14.853-33.203,33.203c0,20.8,19.137,37.13,40.799,32.341
			c12.303-2.72,22.03-12.449,24.747-24.752C132.922,595.638,116.597,576.507,95.797,576.507z M99.416,601.613l5.44-18.181
			c0.167-0.546,0.523-0.942,1.025-1.192c0.523-0.231,1.067-0.253,1.59-0.022c4.186,1.779,7.889,4.497,10.838,7.888
			c0.376,0.419,0.545,0.942,0.461,1.507c-0.063,0.563-0.356,1.025-0.817,1.359l-15.586,10.774c-0.691,0.482-1.57,0.482-2.239-0.02
			C99.437,603.245,99.165,602.407,99.416,601.613z M73.265,590.106c2.949-3.39,6.652-6.108,10.838-7.888
			c0.522-0.231,1.067-0.209,1.59,0.022c0.501,0.251,0.858,0.647,1.025,1.192l5.439,18.181c0.251,0.794-0.021,1.632-0.711,2.113
			c-0.67,0.501-1.548,0.501-2.239,0.02L73.62,592.972c-0.46-0.334-0.753-0.796-0.816-1.359
			C72.72,591.048,72.887,590.525,73.265,590.106z M71.485,625.987c-0.565-0.126-1.004-0.419-1.298-0.921
			c-2.281-3.786-3.744-8.118-4.141-12.741c-0.063-0.565,0.126-1.088,0.501-1.506c0.398-0.419,0.9-0.607,1.465-0.607l18.955,0.439
			c0.837,0.021,1.548,0.544,1.799,1.34c0.251,0.794,0,1.632-0.669,2.133L73.013,625.61C72.552,625.966,72.03,626.092,71.485,625.987
			z M103.747,637.849c-0.272,0.501-0.712,0.838-1.255,0.963c-2.155,0.482-4.393,0.752-6.694,0.752c-2.323,0-4.561-0.251-6.716-0.752
			c-0.545-0.126-0.984-0.462-1.256-0.963c-0.271-0.501-0.334-1.024-0.146-1.568l6.277-17.889c0.271-0.795,0.983-1.297,1.841-1.297
			c0.837,0,1.548,0.501,1.82,1.297l6.277,17.889C104.082,636.824,104.019,637.347,103.747,637.849z M121.384,625.066
			c-0.293,0.502-0.732,0.795-1.297,0.921c-0.546,0.105-1.068-0.021-1.529-0.377l-15.084-11.486c-0.668-0.501-0.92-1.339-0.668-2.133
			c0.251-0.796,0.961-1.319,1.799-1.34l18.955-0.439c0.564,0,1.067,0.189,1.465,0.607c0.376,0.418,0.564,0.941,0.501,1.506
			C125.129,616.948,123.664,621.28,121.384,625.066z"/>
		<linearGradient id="SVGID_5_" gradientUnits="userSpaceOnUse" x1="439.7281" y1="565.4448" x2="439.7281" y2="654.0062">
			<stop  offset="0" style="stop-color:#15293B"/>
			<stop  offset="1" style="stop-color:#293B4E"/>
		</linearGradient>
		<path class="st14" d="M439.728,651.616c23.077,0,41.906-18.829,41.906-41.906c0-23.098-18.829-41.907-41.906-41.907
			c-23.076,0-41.906,18.809-41.906,41.907C397.822,632.786,416.651,651.616,439.728,651.616L439.728,651.616z"/>
		<path class="st6" d="M439.728,576.507c-18.327,0-33.181,14.853-33.181,33.203c0,18.326,14.854,33.181,33.181,33.181
			c18.349,0,33.203-14.855,33.203-33.181C472.931,591.36,458.077,576.507,439.728,576.507z M443.347,601.613l5.461-18.181
			c0.167-0.546,0.502-0.942,1.025-1.192c0.523-0.231,1.068-0.253,1.59-0.022c4.185,1.779,7.888,4.497,10.838,7.888
			c0.376,0.419,0.523,0.942,0.461,1.507c-0.063,0.563-0.357,1.025-0.816,1.359l-15.587,10.774c-0.691,0.482-1.57,0.482-2.239-0.02
			C443.39,603.245,443.117,602.407,443.347,601.613z M417.216,590.106c2.95-3.39,6.632-6.108,10.838-7.888
			c0.523-0.231,1.068-0.209,1.569,0.022c0.523,0.251,0.88,0.647,1.047,1.192l5.439,18.181c0.251,0.794-0.041,1.632-0.711,2.113
			c-0.691,0.501-1.548,0.501-2.239,0.02l-15.587-10.774c-0.482-0.334-0.753-0.796-0.816-1.359
			C416.672,591.048,416.84,590.525,417.216,590.106z M415.417,625.987c-0.564-0.126-1.005-0.419-1.297-0.921
			c-2.281-3.786-3.725-8.118-4.143-12.741c-0.041-0.565,0.147-1.088,0.523-1.506c0.398-0.419,0.899-0.607,1.465-0.607l18.955,0.439
			c0.837,0.021,1.527,0.544,1.799,1.34c0.252,0.794,0,1.632-0.669,2.133l-15.084,11.486
			C416.505,625.966,415.981,626.092,415.417,625.987z M447.699,637.849c-0.272,0.501-0.711,0.838-1.255,0.963
			c-2.155,0.482-4.415,0.752-6.716,0.752c-2.301,0-4.54-0.251-6.694-0.752c-0.565-0.126-0.984-0.462-1.256-0.963
			c-0.292-0.501-0.334-1.024-0.146-1.568l6.276-17.889c0.272-0.795,0.984-1.297,1.821-1.297c0.837,0,1.548,0.501,1.841,1.297
			l6.256,17.889C448.013,636.824,447.971,637.347,447.699,637.849z M464.04,625.987c-0.565,0.105-1.088-0.021-1.529-0.377
			l-15.084-11.486c-0.669-0.501-0.941-1.339-0.669-2.133c0.252-0.796,0.963-1.319,1.8-1.34l18.954-0.439
			c0.565,0,1.067,0.189,1.444,0.607c0.397,0.418,0.564,0.941,0.523,1.506c-0.397,4.623-1.862,8.955-4.142,12.741
			C465.043,625.568,464.604,625.861,464.04,625.987z"/>
		<path class="st8" d="M151.197,520.876c-1.632,3.327-14.938,6.486-39.898,9.436c-43.475,5.879-69.104,12.386-76.908,19.499l0,0
			c-5.063,0.104-10.314,0.794-15.775,2.071c15.586-13.223,40.964-23.035,74.042-28.328c18.034-2.887,34.165-2.364,45.086-9.059
			l0.46-0.272l-0.355,0.209C142.996,515.457,145.884,516.734,151.197,520.876L151.197,520.876z"/>
		<path class="st8" d="M1.147,591.549c7.009-2.866,14.541-3.765,22.616-2.678c-0.523,4.895-1.715,9.498-3.556,13.85
			c-0.941,2.219-2.448,3.809-4.603,4.895c-3.954,1.968-7.741,3.578-11.423,4.854C2.423,606.697,1.523,599.563,1.147,591.549
			L1.147,591.549z"/>
		<linearGradient id="SVGID_6_" gradientUnits="userSpaceOnUse" x1="404.5409" y1="500.0905" x2="200.9357" y2="500.0905">
			<stop  offset="0" style="stop-color:#15293B"/>
			<stop  offset="1" style="stop-color:#293B4E"/>
		</linearGradient>
		<path class="st15" d="M432.971,502.799c-1.548-4.895-4.917-9.498-10.252-12.594c-0.669-0.376-1.36-0.753-2.113-1.088
			c-18.474-8.474-37.743-14.854-57.158-18.872c-19.081-3.954-38.308-5.648-57.053-4.812l-0.184,0.009l-0.34,0.013
			c-0.053,0.002-0.105,0.007-0.158,0.01l-0.239,0.011c0,0.001,0,0.003,0,0.004c-21.555,1.053-42.466,4.847-62.012,11.21
			c-19.603,6.36-37.847,15.314-53.999,26.633c-6.067,4.248-11.193,8.809-15.357,13.893c-4.185,5.105-7.428,10.712-9.708,17.03
			l-0.251,0.712l0.754-0.063c22.804-1.799,45.358-3.473,67.681-5.021c22.188-1.555,44.148-2.985,65.904-4.314
			c0,0.001,0,0.003,0,0.005l0.585-0.042l0.398-0.021c0-0.001,0-0.002,0-0.003c22.293-1.371,44.38-2.62,66.259-3.763
			c22.052-1.15,43.893-2.218,65.569-3.18h0.272l0.125-0.23c0.251-0.439,0.482-0.879,0.691-1.34
			C434.288,512.843,434.54,507.696,432.971,502.799z"/>
		<path class="st13" d="M183.48,523.132l22.135-1.381c0.355-7.992-1.506-14.436-9.54-13.933
			C188.312,508.298,184.316,515.224,183.48,523.132L183.48,523.132z"/>
		<path class="st13" d="M196.179,516.5l9.143-0.565c0.272,1.778,0.376,3.745,0.293,5.816l-13.516,0.837l-0.042-0.983
			C191.931,518.947,193.772,516.646,196.179,516.5L196.179,516.5z"/>
		<path class="st13" d="M177.475,523.508c0.167,3.452,3.138,6.109,6.59,5.879l15.587-0.962c3.452-0.209,6.13-3.201,5.963-6.674
			L177.475,523.508z"/>
		<path class="st13" d="M193.857,508.152c-8.996,1.862-14.478,6.967-16.382,15.356l6.005-0.377
			C184.232,516.018,187.538,509.679,193.857,508.152z"/>
		<path class="st10" d="M423.932,491.544c-1.088-0.732-2.26-1.402-3.514-1.988c-36.592-16.779-76.281-25.315-114.002-23.641
			l-0.523,0.042l-1.82,15.67C341.082,478.656,379.809,481.669,423.932,491.544L423.932,491.544z"/>
		<path class="st10" d="M177.475,514.139c43.663-17.804,83.98-29.102,126.597-32.512l1.82-15.67
			c-43.245,2.008-83.875,15.147-116.157,37.763C185.111,506.984,181.011,510.415,177.475,514.139L177.475,514.139z"/>
		<path class="st16" d="M432.971,502.799c-1.548-4.895-4.917-9.498-10.252-12.594c-0.669-0.376-1.36-0.753-2.113-1.088
			c-18.474-8.474-37.743-14.854-57.158-18.872c-19.081-3.954-38.308-5.648-57.053-4.812l-0.184,0.009l-0.34,0.013
			c-0.053,0.002-0.105,0.007-0.158,0.01l-0.239,0.011c0,0.001,0,0.003,0,0.004c-21.555,1.053-42.466,4.847-62.012,11.21
			c-19.603,6.36-37.847,15.314-53.999,26.633c-6.067,4.248-11.193,8.809-15.357,13.893c-4.185,5.105-7.428,10.712-9.708,17.03
			l-0.251,0.712l0.754-0.063c22.804-1.799,45.358-3.473,67.681-5.021c22.188-1.555,44.148-2.985,65.904-4.314
			c0,0.001,0,0.003,0,0.005l0.585-0.042l0.398-0.021c0-0.001,0-0.002,0-0.003c22.293-1.371,44.38-2.62,66.259-3.763
			c22.052-1.15,43.893-2.218,65.569-3.18h0.272l0.125-0.23c0.251-0.439,0.482-0.879,0.691-1.34
			C434.288,512.843,434.54,507.696,432.971,502.799z M232.52,528.91c-22.135,1.528-44.458,3.18-66.949,4.958
			c2.217-5.941,5.313-11.214,9.267-16.026c4.123-5.021,9.185-9.54,15.19-13.725c16.067-11.255,34.206-20.168,53.726-26.507
			c19.416-6.319,40.19-10.105,61.593-11.152l-6.757,58.121C276.748,525.918,254.739,527.362,232.52,528.91z M431.506,516.587
			c-0.167,0.356-0.335,0.691-0.524,1.025c-21.611,0.962-43.37,2.008-65.295,3.159c-21.86,1.15-43.888,2.385-66.103,3.744
			c1.13-9.661,2.243-19.323,3.362-28.984l3.386-29.115h0.104c18.662-0.837,37.805,0.837,56.824,4.77
			c19.331,4.018,38.537,10.378,56.948,18.809c0.712,0.314,1.381,0.669,2.03,1.046c5.126,2.95,8.327,7.385,9.834,12.052
			C433.557,507.759,433.305,512.654,431.506,516.587z"/>
	</g>
</g>
<g id="datablocks">
	<g id="block1" class="block1">
		<path class="st17" d="M322.852,422.415h-7.242c-1.361,0-2.464,1.103-2.464,2.464v7.241c0,1.361,1.103,2.464,2.464,2.464h7.242
			c1.361,0,2.464-1.103,2.464-2.464v-7.241C325.315,423.518,324.212,422.415,322.852,422.415z"/>
		<path class="st17" d="M342.003,377.167h-10.514c-1.976,0-3.577,1.602-3.577,3.578v10.514c0,1.976,1.602,3.577,3.577,3.577h10.514
			c1.976,0,3.577-1.602,3.577-3.577v-10.514C345.58,378.769,343.979,377.167,342.003,377.167z"/>
	</g>
	<g id="block2" class="block2">
		<path class="st18" d="M308.232,372.673h-25.303c-3.605,0-6.527,2.922-6.527,6.527v25.303c0,3.605,2.922,6.527,6.527,6.527h25.303
			c3.605,0,6.527-2.922,6.527-6.527V379.2C314.759,375.595,311.837,372.673,308.232,372.673z"/>
		<path class="st17" d="M366.458,312.078h-10.514c-1.976,0-3.577,1.602-3.577,3.578v10.514c0,1.976,1.602,3.578,3.577,3.578h10.514
			c1.976,0,3.577-1.602,3.577-3.578v-10.514C370.036,313.68,368.434,312.078,366.458,312.078z"/>
	</g>
	<g id="block3_1_" class="block3">
		<path class="st18" d="M354.668,337.335h-21.269c-3.031,0-5.487,2.457-5.487,5.487v21.269c0,3.031,2.457,5.487,5.487,5.487h21.269
			c3.03,0,5.487-2.456,5.487-5.487v-21.269C360.155,339.792,357.698,337.335,354.668,337.335z"/>
		<path class="st17" d="M316.138,305.864c0-6.426-5.209-11.635-11.635-11.635h-45.098c-6.426,0-11.635,5.209-11.635,11.635v45.098
			c0,6.425,5.209,11.634,11.635,11.634h45.098c6.426,0,11.635-5.209,11.635-11.634V305.864z"/>
	</g>
	<g id="block4" class="block4">
		<g>
			<path class="st18" d="M327.912,271.512c0-4.994-4.048-9.041-9.042-9.041h-35.048c-4.994,0-9.042,4.048-9.042,9.041v35.048
				c0,4.994,4.048,9.042,9.042,9.042h35.048c4.993,0,9.042-4.048,9.042-9.042V271.512z"/>
			<path class="st19" d="M304.503,294.229h-29.724v12.331c0,4.994,4.048,9.042,9.042,9.042h32.316v-9.738
				C316.138,299.438,310.929,294.229,304.503,294.229z"/>
		</g>
	</g>
	<g id="block5" class="block5">
		<path class="st18" d="M235.43,309.196h-10.514c-1.976,0-3.577,1.602-3.577,3.577v10.514c0,1.976,1.602,3.578,3.577,3.578h10.514
			c1.975,0,3.577-1.602,3.577-3.578v-10.514C239.008,310.797,237.406,309.196,235.43,309.196z"/>
	</g>
	<g id="block6" class="block6">
		<path class="st18" d="M383.228,306.221h-5.257c-0.989,0-1.789,0.801-1.789,1.789v5.257c0,0.987,0.8,1.788,1.789,1.788h5.257
			c0.988,0,1.789-0.801,1.789-1.788v-5.257C385.017,307.022,384.216,306.221,383.228,306.221z"/>
	</g>
	<g id="block7" class="block7">
		<path class="st18" d="M224.725,293.157v-24.394c0-3.476-2.818-6.293-6.293-6.293h-24.394c-3.475,0-6.293,2.818-6.293,6.293v24.394
			c0,3.476,2.817,6.293,6.293,6.293h24.394C221.907,299.451,224.725,296.633,224.725,293.157z"/>
	</g>
	<g id="block8" class="block8">
		<path class="st18" d="M276.73,248.648v-5.257c0-0.987-0.801-1.788-1.789-1.788h-5.257c-0.989,0-1.789,0.801-1.789,1.788v5.257
			c0,0.987,0.8,1.788,1.789,1.788h5.257C275.929,250.437,276.73,249.636,276.73,248.648z"/>
	</g>
	<g id="block9" class="block9">
		<path class="st18" d="M253.432,235.538H237.43c-2.28,0-4.128,1.848-4.128,4.128v16.003c0,2.28,1.848,4.128,4.128,4.128h16.002
			c2.28,0,4.128-1.848,4.128-4.128v-16.003C257.56,237.386,255.712,235.538,253.432,235.538z"/>
	</g>
	<g id="block10" class="block10">
		<path class="st17" d="M318.773,251.108h10.514c1.976,0,3.577-1.602,3.577-3.577v-10.514c0-1.976-1.602-3.578-3.577-3.578h-10.514
			c-1.976,0-3.578,1.602-3.578,3.578v10.514C315.196,249.507,316.797,251.108,318.773,251.108z"/>
	</g>
	<g id="block11" class="block11">
		<path class="st17" d="M250.821,241.686v-31.618c0-4.505-3.652-8.157-8.157-8.157h-31.618c-4.505,0-8.157,3.652-8.157,8.157v31.618
			c0,4.505,3.652,8.157,8.157,8.157h31.618C247.169,249.843,250.821,246.191,250.821,241.686z"/>
		<path class="st19" d="M233.302,239.665v10.178h9.362c4.505,0,8.157-3.652,8.157-8.157v-6.149H237.43
			C235.15,235.538,233.302,237.386,233.302,239.665z"/>
	</g>
	<g id="block12" class="block12">
		<path class="st17" d="M291.56,219.411c1.976,0,3.578,1.602,3.578,3.577v10.514c0,1.976-1.602,3.577-3.578,3.577h-10.514
			c-1.976,0-3.577-1.602-3.577-3.577v-10.514c0-1.976,1.602-3.577,3.577-3.577H291.56z"/>
		<path class="st18" d="M400.934,227.036h-45.098c-1.47,0-2.871,0.284-4.165,0.781c-4.365,1.677-7.469,5.897-7.469,10.853v45.099
			c0,6.425,5.209,11.635,11.635,11.635h26.053h19.046c6.426,0,11.634-5.209,11.634-11.635l0.001-26.052V238.67
			c0-3.212-1.303-6.122-3.408-8.227C407.056,228.338,404.148,227.036,400.934,227.036z"/>
	</g>
	<g id="block13" class="block13">
		<path class="st17" d="M389.596,212.983h-21.27c-3.03,0-5.487,2.457-5.487,5.487v21.27c0,3.03,2.457,5.487,5.487,5.487h21.27
			c3.03,0,5.487-2.456,5.487-5.487v-21.27C395.083,215.439,392.626,212.983,389.596,212.983z"/>
		<path class="st19" d="M362.839,239.739c0,3.03,2.457,5.487,5.487,5.487h21.27c3.03,0,5.487-2.456,5.487-5.487v-12.703h-32.244
			V239.739z"/>
	</g>
	<g id="block14" class="block14">
		<path class="st17" d="M428.925,250.035h-5.257c-0.988,0-1.789,0.801-1.789,1.789v5.257c0,0.988,0.801,1.789,1.789,1.789h5.257
			c0.988,0,1.789-0.801,1.789-1.789v-5.257C430.714,250.836,429.913,250.035,428.925,250.035z"/>
		<path class="st18" d="M179.095,221.761h-16.002c-2.28,0-4.128,1.848-4.128,4.128v16.002c0,2.28,1.848,4.128,4.128,4.128h16.002
			c2.28,0,4.128-1.848,4.128-4.128v-16.002C183.223,223.61,181.375,221.761,179.095,221.761z"/>
	</g>
	<g id="block15" class="block15">
		<path class="st17" d="M169.253,209.559h-18.812c-2.68,0-4.853,2.173-4.853,4.853v18.812c0,2.68,2.173,4.853,4.853,4.853h18.812
			c2.68,0,4.853-2.173,4.853-4.853v-18.812C174.106,211.732,171.934,209.559,169.253,209.559z"/>
		<path class="st19" d="M158.965,225.889v12.188h10.289c2.68,0,4.853-2.173,4.853-4.853v-11.463h-11.014
			C160.813,221.761,158.965,223.61,158.965,225.889z"/>
	</g>
	<g id="block16" class="block16">
		<path class="st17" d="M261.794,200.027c-0.988,0-1.789,0.801-1.789,1.789v5.257c0,0.988,0.801,1.789,1.789,1.789h5.257
			c0.988,0,1.789-0.801,1.789-1.789v-5.257c0-0.988-0.801-1.789-1.789-1.789H261.794z"/>
		<path class="st18" d="M299.179,175.476c-0.873,0-1.704,0.169-2.473,0.464c-2.592,0.995-4.435,3.502-4.435,6.444v26.777
			c0,3.815,3.093,6.908,6.908,6.908h15.469h11.309c3.815,0,6.908-3.093,6.908-6.908l0-15.469v-11.308
			c0-1.908-0.773-3.635-2.024-4.885c-1.25-1.251-2.977-2.024-4.885-2.024H299.179z"/>
	</g>
	<g id="block17" class="block17">
		<path class="st17" d="M355.932,188.62v-5.257c0-0.988-0.801-1.789-1.789-1.789h-5.257c-0.988,0-1.789,0.801-1.789,1.789v5.257
			c0,0.988,0.801,1.789,1.789,1.789h5.257C355.131,190.409,355.932,189.608,355.932,188.62z"/>
	</g>
	<g id="block18" class="block18">
		<path class="st17" d="M281.253,173.192v21.708c0,3.093,2.507,5.6,5.6,5.6h21.708c3.093,0,5.6-2.507,5.6-5.6v-21.708
			c0-3.093-2.507-5.6-5.6-5.6h-21.708C283.76,167.591,281.253,170.098,281.253,173.192z"/>
		<path class="st19" d="M292.271,200.499h16.291c3.093,0,5.6-2.507,5.6-5.6v-19.423h-14.983c-0.873,0-1.704,0.169-2.473,0.464
			c-2.592,0.995-4.435,3.502-4.435,6.444V200.499z"/>
	</g>
	<g id="block19" class="block19">
		<path class="st17" d="M443.722,223.232h-10.514c-1.976,0-3.577,1.602-3.577,3.578v10.514c0,1.976,1.602,3.578,3.577,3.578h10.514
			c1.976,0,3.577-1.602,3.577-3.578v-10.514C447.299,224.834,445.698,223.232,443.722,223.232z"/>
	</g>
	<g id="block20" class="block20">
		<path class="st18" d="M188.762,186.537c0-1.976-1.602-3.578-3.577-3.578h-10.514c-1.976,0-3.577,1.602-3.577,3.578v10.514
			c0,1.976,1.602,3.577,3.577,3.577h10.514c1.975,0,3.577-1.602,3.577-3.577V186.537z"/>
		<path class="st18" d="M270.423,152.273h5.257c0.988,0,1.789-0.801,1.789-1.788v-5.257c0-0.987-0.801-1.788-1.789-1.788h-5.257
			c-0.989,0-1.789,0.801-1.789,1.788v5.257C268.634,151.473,269.434,152.273,270.423,152.273z"/>
	</g>
	<g id="block21" class="block21">
		<path class="st17" d="M158.48,183.584h5.257c0.988,0,1.789-0.801,1.789-1.789v-5.257c0-0.988-0.801-1.789-1.789-1.789h-5.257
			c-0.988,0-1.789,0.801-1.789,1.789v5.257C156.692,182.783,157.492,183.584,158.48,183.584z"/>
		<path class="st18" d="M199.54,176.261v-34.15c0-3.753,2.351-6.949,5.656-8.218c0.981-0.377,2.041-0.592,3.154-0.592h34.15
			c2.433,0,4.636,0.986,6.23,2.58c1.594,1.594,2.581,3.796,2.581,6.23v14.422l-0.001,19.728c0,4.866-3.944,8.81-8.81,8.81h-14.422
			H208.35C203.485,185.071,199.54,181.127,199.54,176.261z"/>
	</g>
	<g id="block22_1_" class="block22">
		<path class="st17" d="M425.17,149.334c0-5.203-4.218-9.42-9.42-9.42h-36.515c-5.203,0-9.42,4.218-9.42,9.42v36.515
			c0,5.203,4.217,9.42,9.42,9.42h36.515c5.203,0,9.42-4.218,9.42-9.42V149.334z"/>
		<path class="st18" d="M314.366,158.778h16.002c2.28,0,4.128-1.848,4.128-4.129v-16.002c0-2.28-1.848-4.129-4.128-4.129h-16.002
			c-2.28,0-4.128,1.849-4.128,4.129v16.002C310.238,156.93,312.086,158.778,314.366,158.778z"/>
		<path class="st18" d="M366.539,113.197h7.916c1.487,0,2.694-1.206,2.694-2.694v-7.916c0-1.488-1.206-2.694-2.694-2.694h-7.916
			c-1.489,0-2.694,1.206-2.694,2.694v7.916C363.845,111.991,365.05,113.197,366.539,113.197z"/>
	</g>
	<g id="block23" class="block23">
		<path class="st17" d="M328.07,120.989h16.76c3.15,0,5.703-2.553,5.703-5.702V98.525c0-3.149-2.553-5.702-5.703-5.702h-16.76
			c-3.15,0-5.703,2.553-5.703,5.702v16.761C322.367,118.436,324.92,120.989,328.07,120.989z"/>
		<path class="st17" d="M255.802,126.104h30.117c4.291,0,7.77-3.478,7.77-7.769V88.218c0-4.291-3.479-7.77-7.77-7.77h-30.117
			c-4.291,0-7.77,3.479-7.77,7.77v30.117C248.033,122.626,251.511,126.104,255.802,126.104z"/>
	</g>
	<g id="block24" class="block24">
		<path class="st17" d="M347.905,84.865h5.257c0.988,0,1.789-0.801,1.789-1.789v-5.257c0-0.988-0.801-1.789-1.789-1.789h-5.257
			c-0.988,0-1.789,0.801-1.789,1.789v5.257C346.116,84.064,346.917,84.865,347.905,84.865z"/>
	</g>
	<g id="block25" class="block25">
		<path class="st18" d="M433.972,168.533c-1.182-1.181-2.815-1.913-4.619-1.913h-25.317c-0.825,0-1.612,0.159-2.338,0.439
			c-2.45,0.941-4.193,3.311-4.193,6.093v25.316c0,3.607,2.924,6.532,6.531,6.532h14.625h10.692c3.607,0,6.531-2.924,6.531-6.531
			l0-14.625v-10.692C435.885,171.347,435.154,169.715,433.972,168.533z"/>
		<path class="st19" d="M404.037,166.62c-0.825,0-1.612,0.159-2.338,0.439c-2.45,0.941-4.193,3.311-4.193,6.093v22.118h18.244
			c5.203,0,9.42-4.218,9.42-9.42V166.62H404.037z"/>
		<path class="st18" d="M280.794,93.428h13.259h9.693c3.27,0,5.921-2.651,5.921-5.921l0-13.259v-9.693
			c0-1.635-0.663-3.116-1.735-4.187c-1.071-1.072-2.552-1.734-4.187-1.734h-22.952c-0.748,0-1.461,0.144-2.12,0.397
			c-2.221,0.853-3.801,3.001-3.801,5.524v22.952C274.873,90.777,277.524,93.428,280.794,93.428z"/>
		<path class="st19" d="M274.873,87.507v-7.059h11.047c4.291,0,7.77,3.479,7.77,7.77v5.21h-12.895
			C277.524,93.428,274.873,90.777,274.873,87.507z"/>
	</g>
</g>
</svg>
