<?xml version="1.0" encoding="UTF-8"?>
<svg xmlns="http://www.w3.org/2000/svg" viewBox="0 0 1368 842">

    <style type="text/css">

        .tracing-animation-A {
            stroke-dasharray: 345;
            stroke-dashoffset: 345;
            animation: tracing-animation-A 12s 0s ease normal infinite forwards;
        }

        @keyframes tracing-animation-A {
            0%, 3.125% {
                stroke-dashoffset: 0;
            }

            6.25%, 80% {
                stroke-dashoffset: 345;
            }

            90%, 100% {
                stroke-dashoffset: 0;
            }
        }

        .tracing-animation-B {
            stroke-dasharray: 2100;
            stroke-dashoffset: 2100;
            animation: tracing-animation-B 12s 0s ease normal infinite forwards;
        }

        @keyframes tracing-animation-B {
            0%, 9.375% {
                stroke-dashoffset: 0;
            }

            18.75%, 80% {
                stroke-dashoffset: 2100;
            }

            90%, 100% {
                stroke-dashoffset: 0;
            }
        }

        .tracing-animation-C {
            stroke-dasharray: 305;
            stroke-dashoffset: 305;
            animation: tracing-animation-C 12s 0s ease normal infinite forwards;
        }

        @keyframes tracing-animation-C {
            0%, 21.875% {
                stroke-dashoffset: 0;
            }

            25%, 80% {
                stroke-dashoffset: 305;
            }

            90%, 100% {
                stroke-dashoffset: 0;
            }
        }

        .fade-animation-1 {
            animation: fade-animation-1 12s 0s ease normal infinite forwards;
        }

        @keyframes fade-animation-1 {
            0% {
                opacity: 0;
            }

            3.125%, 80% {
                opacity: 1;
            }

            90%, 100% {
                opacity: 0;
            }
        }


        .fade-animation-2 {
            animation: fade-animation-2 12s 0s ease normal infinite forwards;
        }

        @keyframes fade-animation-2 {
            0%, 6.125% {
                opacity: 0;
            }

            9.375%, 80% {
                opacity: 1;
            }

            90%, 100% {
                opacity: 0;
            }
        }

        .fade-animation-3 {
            animation: fade-animation-3 12s 0s ease normal infinite forwards;
        }

        @keyframes fade-animation-3 {
            0%, 18.75% {
                opacity: 0;
            }

            21.875%, 80% {
                opacity: 1;
            }

            90%, 100% {
                opacity: 0;
            }
        }

        .fade-animation-4 {
            animation: fade-animation-4 12s 0s ease normal infinite forwards;
        }

        @keyframes fade-animation-4 {
            0%, 25% {
                opacity: 0;
            }

            28.125%, 80% {
                opacity: 1;
            }

            90%, 100% {
                opacity: 0;
            }
        }
    </style>

    <g id="icon-step-1" class="fade-animation-1">
        <g>
            <line x1="231.1555" y1="110.445" x2="168.8208" y2="110.445" fill="#fff" stroke="#25477b" stroke-linecap="round" stroke-linejoin="round" stroke-width="5.3443" />
            <path d="M170.2119,72.6675h13.7847v14.7876c0,3.079,2.4957,5.5754,5.5754,5.5754h5.4897v41.8243h22.4255v-41.8243h5.4897c3.079,0,5.5754-2.4964,5.5754-5.5754v-14.7876h13.7834c4.4361,0,8.0317-3.5959,8.0317-8.0317v-18.294h-88.1864v18.294c0,4.4358,3.5956,8.0317,8.031,8.0317Z" fill="#fff" stroke="#25477b" stroke-linecap="round" stroke-linejoin="round" stroke-width="5.3443" />
            <path d="M391.9053,148.9064v106.7566c0,7.6982-6.2403,13.9385-13.9385,13.9385H169.4292c-7.6989,0-13.9385-6.2403-13.9385-13.9385v-106.7566c0-7.6978,6.2397-13.9385,13.9385-13.9385h92.8627c1.9438,0,3.7467-1.0117,4.7587-2.6703l4.5423-7.4396c2.0241-3.3172,5.6305-5.3406,9.5174-5.3406h51.3289c3.8862,0,7.4933,2.0237,9.5181,5.3416l4.5402,7.4382c1.0127,1.6589,2.8163,2.6706,4.7587,2.6706h26.7105c7.6982,0,13.9385,6.2407,13.9385,13.9385Z" fill="#fff" stroke="#25477b" stroke-miterlimit="10" stroke-width="5.3443" />
            <path d="M236.9584,164.8017c0-4.16-3.3725-7.5321-7.5325-7.5321h-44.1024c-4.1609,0-7.5325,3.3721-7.5325,7.5321s3.3717,7.5321,7.5325,7.5321h44.1024c4.16,0,7.5325-3.3721,7.5325-7.5321Z" fill="#fff" stroke="#0078d3" stroke-linecap="round" stroke-linejoin="round" stroke-width="5.3443" />
            <circle cx="306.7748" cy="202.2848" r="41.9873" transform="translate(75.2454 487.6339) rotate(-84.345)" fill="#fff" stroke="#0078d3" stroke-linecap="round" stroke-linejoin="round" stroke-width="5.3443" />
            <path d="M332.7285,202.2849c0,14.3084-11.6419,25.9538-25.9538,25.9538s-25.9544-11.6454-25.9544-25.9538,11.6426-25.9541,25.9544-25.9541,25.9538,11.6451,25.9538,25.9541Z" fill="#fff" stroke="#0078d3" stroke-linecap="round" stroke-linejoin="round" stroke-width="5.3443" />
        </g>
        <path d="M96.2256,234.98h-18.4014v-70.9316l-21.9673,6.813v-14.9629l38.3945-13.7534h1.9741v92.835Z" fill="#0078d3" />
    </g>
    <g id="line-segment-A">
        <path d="M759.4824,196.2441h-9.6201v-3.207h9.6201v3.207Zm-19.2402,0h-9.6191v-3.207h9.6191v3.207Zm-19.2393,0h-9.6201v-3.207h9.6201v3.207Zm-19.2393,0h-9.6201v-3.207h9.6201v3.207Zm-19.2402,0h-9.6196v-3.207h9.6196v3.207Zm-19.2393,0h-9.6201v-3.207h9.6201v3.207Zm-19.2397,0h-9.6196v-3.207h9.6196v3.207Zm-19.2397,0h-9.6196v-3.207h9.6196v3.207Zm-19.2393,0h-9.6201v-3.207h9.6201v3.207Zm-19.2397,0h-9.6196v-3.207h9.6196v3.207Zm-19.2397,0h-9.6196v-3.207h9.6196v3.207Zm-19.2393,0h-9.6201v-3.207h9.6201v3.207Zm-19.2397,0h-9.6196v-3.207h9.6196v3.207Zm-19.2397,0h-9.6196v-3.207h9.6196v3.207Zm-19.2397,0h-9.6196v-3.207h9.6196v3.207Zm-19.2393,0h-9.6201v-3.207h9.6201v3.207Zm-19.2397,0h-9.6196v-3.207h9.6196v3.207Zm-19.2397,0h-9.6196v-3.207h9.6196v3.207Z" fill="#25477b" />
    </g>
    <g id="line-mask-A" class="tracing-animation-A">
        <line x1="764.0429" y1="194.6405" x2="422.7892" y2="194.6405" fill="none" stroke="#fff" stroke-linecap="round" stroke-linejoin="round" stroke-width="8" />
    </g>
    <g id="icon-step-2" class="fade-animation-2">
        <g>
            <g>
                <path d="M1118.1225,188.6074l-2.5753-7.51c-1.4303-4.1719-5.9722-7.5177-10.1103-7.517l-9.336,.0014c-3.1805-8.9335-6.6793-18.6898-9.7895-27.2133-1.0833-2.9691-2.1176-5.784-3.0752-8.3623l-24.6761,18.2431-3.736-15.9463-18.6261-1.3789,12.5276-12.9386-.1974-.41-8.7238-18.1238c-2.796-.3102-6.015-.6025-9.761-.8495-6.5236-.4297-14.5309-.7212-24.3493-.7197-37.9142,.0058-49.2845,4.3388-49.2845,4.3388-7.973,2.6585-19.0574,6.4284-23.4632,14.8227-2.0519,3.9537-10.7611,28.3541-17.8564,48.5574l-9.1171,.0014c-4.1382,.0006-8.6789,3.3739-10.1089,7.5284l-2.5721,7.5108c-1.4292,4.1717,.7918,7.5185,4.9463,7.5178l9.0164-.0014c-1.1433,3.3905-1.8829,5.4431-1.8829,5.4431-.7068,1.2269-1.227,6.8461-1.2267,8.3767l.0065,42.6079,.0005,2.9769,.0035,22.9192c.0007,4.3984,3.5668,7.9809,7.9575,7.9803l29.2182-.0045c4.4072-.0007,7.9729-3.5843,7.9722-7.9827l-.0022-14.601,112.8351-.0173,.0022,14.601c.0007,4.3984,3.5678,7.9809,7.9748,7.9803l29.2011-.0045c4.3734-.0007,7.9566-3.5843,7.9559-7.9827l-.0035-22.9192-.0005-2.9769-.0065-42.6332c-.0002-1.5052-.5231-7.1317-1.2466-8.3509,0,0-.7238-2.0523-1.8844-5.4425l9.0326-.0014c4.1548-.0006,6.3744-3.3481,4.9613-7.5193Z" fill="#fff" />
                <g>
                    <path d="M949.1271,230.6105l-12.0943,.0019c-10.799,.0017-21.5985-1.4435-21.5995-8.3058l-.0013-8.3266c-.0012-8.0241,4.6753-8.3022,9.6877-8.303,4.9117-.0008,14.6184,4.1438,21.0274,7.0194,6.9644,3.1193,14.7531,5.7087,14.7539,10.8977,.0343,4.8032-2.6729,7.0152-11.7739,7.0166" fill="none" stroke="#0078d3" stroke-linecap="round" stroke-linejoin="round" stroke-width="5.3443" />
                    <path d="M1095.9578,222.2789s-4.9734,8.3099-21.5979,8.3124l-12.077,.0018c-9.0835,.0014-11.7917-2.2097-11.7924-7.013-.0008-5.2053,17.3764-11.2187,24.3399-14.3236l8.4279,9.2445,12.6995,3.7778Z" fill="none" stroke="#0078d3" stroke-linecap="round" stroke-linejoin="round" stroke-width="5.3443" />
                    <path d="M1070.6058,147.344c1.8812,5.7929,6.5059,21.9109,8.3217,29.2509,0,0-24.2211,8.2547-73.2213,8.2622-49.033,.0075-73.4081-8.2233-73.4081-8.2233,5.9345-24.6681,12.3916-38.5885,13.8208-42.5009,1.1095-2.8083,2.2348-11.5141,59.5778-11.5229,14.0024-.0021,34.052,1.228,43.0289,3.3755" fill="none" stroke="#0078d3" stroke-linecap="round" stroke-linejoin="round" stroke-width="5.3443" />
                    <polyline points="1036.198 138.9242 994.033 154.6133 968.7509 152.4188 959.5888 138.9359" fill="none" stroke="#0078d3" stroke-linecap="round" stroke-linejoin="round" stroke-width="5.3443" />
                    <line x1="968.7509" y1="152.4188" x2="955.2312" y2="160.1095" fill="none" stroke="#0078d3" stroke-linecap="round" stroke-linejoin="round" stroke-width="5.3443" />
                    <line x1="994.033" y1="154.6133" x2="995.6886" y2="170.6714" fill="none" stroke="#0078d3" stroke-linecap="round" stroke-linejoin="round" stroke-width="5.3443" />
                    <line x1="1058.5602" y1="156.2494" x2="1050.0008" y2="182.2907" fill="none" stroke="#0078d3" stroke-linecap="round" stroke-linejoin="round" stroke-width="5.3443" />
                    <g>
                        <path d="M933.886,43.2172c39.1097-39.4259,103.0047-39.6823,142.4307-.5726" fill="none" stroke="#0078d3" stroke-linecap="round" stroke-linejoin="round" stroke-width="5.3443" />
                        <path d="M953.5971,62.7701c28.3279-28.557,74.6088-28.7433,103.1667-.4145" fill="none" stroke="#0078d3" stroke-linecap="round" stroke-linejoin="round" stroke-width="5.3443" />
                        <path d="M973.3071,82.3227c17.5753-17.7175,46.1858-17.8327,63.9032-.2573" fill="none" stroke="#0078d3" stroke-linecap="round" stroke-linejoin="round" stroke-width="5.3443" />
                    </g>
                    <path d="M1118.1225,188.6074l-2.5753-7.51c-1.4303-4.1719-5.9722-7.5177-10.1103-7.517l-9.336,.0014c-3.1805-8.9335-6.6793-18.6898-9.7895-27.2133-1.0833-2.9691-2.1176-5.784-3.0752-8.3623l-24.6761,18.2431-3.736-15.9463-18.6261-1.3789,12.5276-12.9386-.1974-.41-8.7238-18.1238c-2.796-.3102-6.015-.6025-9.761-.8495-6.5236-.4297-14.5309-.7212-24.3493-.7197-37.9142,.0058-49.2845,4.3388-49.2845,4.3388-7.973,2.6585-19.0574,6.4284-23.4632,14.8227-2.0519,3.9537-10.7611,28.3541-17.8564,48.5574l-9.1171,.0014c-4.1382,.0006-8.6789,3.3739-10.1089,7.5284l-2.5721,7.5108c-1.4292,4.1717,.7918,7.5185,4.9463,7.5178l9.0164-.0014c-1.1433,3.3905-1.8829,5.4431-1.8829,5.4431-.7068,1.2269-1.227,6.8461-1.2267,8.3767l.0065,42.6079,.0005,2.9769,.0035,22.9192c.0007,4.3984,3.5668,7.9809,7.9575,7.9803l29.2182-.0045c4.4072-.0007,7.9729-3.5843,7.9722-7.9827l-.0022-14.601,112.8351-.0173,.0022,14.601c.0007,4.3984,3.5678,7.9809,7.9748,7.9803l29.2011-.0045c4.3734-.0007,7.9566-3.5843,7.9559-7.9827l-.0035-22.9192-.0005-2.9769-.0065-42.6332c-.0002-1.5052-.5231-7.1317-1.2466-8.3509,0,0-.7238-2.0523-1.8844-5.4425l9.0326-.0014c4.1548-.0006,6.3744-3.3481,4.9613-7.5193Z" fill="none" stroke="#25477b" stroke-linecap="round" stroke-linejoin="round" stroke-width="5.3443" />
                </g>
            </g>
            <path d="M1114.9788,55.9728l25.6026,44.3451c3.2749,5.6723-.8187,12.7628-7.3686,12.7628h-51.2053c-6.5499,0-10.6435-7.0904-7.3686-12.7628l25.6026-44.3451c3.2749-5.6723,11.4622-5.6723,14.7372,0Z" fill="#fff" stroke="#0078d3" stroke-linecap="round" stroke-linejoin="round" stroke-width="4.2755" />
            <g>
                <path d="M1107.6105,67.8475c-3.0484,0-5.5199,2.8172-5.5199,6.2924,0,3.3888,.266,6.5645,.7289,9.3082,.9516,5.6416,2.7401,9.4452,4.7911,9.4452,3.048,0,5.5193-8.3962,5.5193-18.7534,0-.376-.0344-.7423-.0898-1.1002-.4572-2.9496-2.7114-5.1922-5.4295-5.1922Z" fill="#0078d3" />
                <path d="M1107.6105,96.3129c-1.9598,0-3.5486,1.5886-3.5486,3.5482s1.5888,3.5484,3.5486,3.5484,3.5482-1.5886,3.5482-3.5484-1.5886-3.5482-3.5482-3.5482Z" fill="#0078d3" />
            </g>
        </g>
        <path d="M847.9756,234.98h-63.5449v-12.6074l29.9893-31.9634c4.1172-4.499,7.1641-8.4258,9.1377-11.7798,1.9736-3.3525,2.9609-6.5361,2.9609-9.5508,0-4.1167-1.041-7.354-3.1201-9.71-2.0801-2.356-5.0518-3.5337-8.9141-3.5337-4.1611,0-7.4404,1.4326-9.8379,4.2979-2.3984,2.8652-3.5977,6.6328-3.5977,11.3018h-18.4648c0-5.645,1.3467-10.8022,4.043-15.4727,2.6953-4.6689,6.5049-8.3301,11.4297-10.9834,4.9238-2.6523,10.5059-3.9795,16.7461-3.9795,9.5508,0,16.9688,2.292,22.2529,6.8765,5.2852,4.5845,7.9277,11.0586,7.9277,19.4204,0,4.5845-1.1895,9.2544-3.5654,14.0078-2.3779,4.7549-6.4531,10.2944-12.2256,16.6187l-21.0752,22.2217h39.8584v14.8359Z" fill="#0078d3" />
    </g>
    <g id="line-segment-B">
        <path d="M168.354,720.1035h-10.1836v-3.3945h10.1836v3.3945Zm-20.3672,0h-8.2275c-.6611,0-1.3218-.0049-1.981-.0146l.0508-3.3945c.6426,.0098,1.2856,.0146,1.9302,.0146h8.2275v3.3945Zm-20.501-.5596c-3.4136-.3135-6.8525-.7646-10.2207-1.3398l.5713-3.3457c3.2822,.5605,6.6333,.999,9.96,1.3047l-.3105,3.3809Zm-20.3071-3.4736c-3.3135-.8359-6.6411-1.8164-9.8906-2.9131l1.0859-3.2168c3.1655,1.0693,6.4072,2.0244,9.6348,2.8389l-.8301,3.291Zm-19.5137-6.5879c-3.1436-1.3438-6.2754-2.8301-9.3076-4.416l1.5732-3.0078c2.9546,1.5449,6.0059,2.9932,9.0693,4.3027l-1.335,3.1211Zm-18.2461-9.5469c-2.8975-1.8154-5.7622-3.7695-8.5151-5.8076l2.0205-2.7285c2.6821,1.9863,5.4736,3.8906,8.2964,5.6592l-1.8018,2.877Zm-16.5557-12.2578c-2.5854-2.2432-5.1152-4.6162-7.5195-7.0527l2.416-2.3848c2.3438,2.375,4.8091,4.6875,7.3286,6.874l-2.2251,2.5635Zm-14.4731-14.667c-2.2065-2.6104-4.3413-5.3457-6.3452-8.1299l2.7549-1.9824c1.9526,2.7119,4.0332,5.377,6.1831,7.9209l-2.5928,2.1914Zm-12.0425-16.7275c-1.7808-2.9277-3.4668-5.9609-5.0127-9.0156l3.0288-1.5332c1.5059,2.9766,3.1494,5.9326,4.8843,8.7852l-2.9004,1.7637Zm-9.3081-18.3994c-1.3037-3.1699-2.4976-6.4307-3.5483-9.6914l3.2305-1.041c1.0239,3.1758,2.187,6.3525,3.4575,9.4414l-3.1396,1.291Zm-6.3252-19.6201c-.7905-3.3262-1.4604-6.7295-1.9907-10.1152l3.3535-.5254c.5166,3.2988,1.1694,6.6143,1.9399,9.8555l-3.3027,.7852Zm-3.1885-20.3525c-.2651-3.4033-.4014-6.8682-.4053-10.2988l3.3945-.0039c.0039,3.3447,.1367,6.7227,.3945,10.0391l-3.3838,.2637Zm3.3628-20.3447l-3.3848-.2559c.2583-3.417,.6543-6.8633,1.1758-10.2412l3.3545,.5176c-.5083,3.292-.8936,6.6494-1.1455,9.9795Zm3.0635-19.8389l-3.3042-.7773c.7842-3.3301,1.7109-6.6729,2.7544-9.9355l3.2334,1.0342c-1.0166,3.1787-1.9199,6.4355-2.6836,9.6787Zm6.1157-19.1182l-3.1426-1.2842c1.2944-3.167,2.73-6.3223,4.2671-9.3789l3.0322,1.5254c-1.4976,2.9775-2.896,6.0518-4.1567,9.1377Zm9.0146-17.9248l-2.9053-1.7559c1.771-2.9287,3.6792-5.8242,5.6719-8.6064l2.7598,1.9766c-1.9419,2.7109-3.8013,5.5322-5.5264,8.3857Zm11.688-16.3203l-2.5996-2.1836c2.1978-2.6162,4.5303-5.1836,6.9331-7.6309l2.4219,2.3789c-2.3413,2.3848-4.6143,4.8857-6.7554,7.4355Zm14.0669-14.3301l-2.2314-2.5586c2.5801-2.25,5.2808-4.4287,8.0278-6.4727l2.0264,2.7227c-2.6768,1.9922-5.3086,4.1152-7.8228,6.3086Zm16.1118-11.9941l-1.8096-2.8711c2.896-1.8252,5.9019-3.5605,8.9341-5.1562l1.5811,3.0039c-2.9546,1.5547-5.8833,3.2451-8.7056,5.0234Zm17.7769-9.3535l-1.3408-3.1191c3.1504-1.3545,6.3911-2.6006,9.6323-3.7031l1.0938,3.2129c-3.1582,1.0752-6.3159,2.2891-9.3853,3.6094Zm19.0142-6.4697l-.8389-3.2891c3.3096-.8438,6.7021-1.5684,10.0825-2.1533l.5791,3.3447c-3.2939,.5693-6.5986,1.2754-9.8228,2.0977Zm19.7793-3.4248l-.3174-3.3789c3.3999-.3193,6.8618-.5107,10.2905-.5684l.0571,3.3945c-3.3423,.0557-6.7168,.2422-10.0303,.5527Zm1100.7607-.5713h-1.1279v-3.3945h1.1279c2.9707,0,5.9746-.1025,8.9297-.3057l.2324,3.3867c-3.0322,.208-6.1152,.3135-9.1621,.3135Zm-11.3115,0h-10.1836v-3.3945h10.1836v3.3945Zm-20.3672,0h-10.1836v-3.3945h10.1836v3.3945Zm-20.3672,0h-10.1836v-3.3945h10.1836v3.3945Zm-20.3662,0h-10.1836v-3.3945h10.1836v3.3945Zm-20.3672,0h-10.1836v-3.3945h10.1836v3.3945Zm-20.3672,0h-10.1836v-3.3945h10.1836v3.3945Zm-20.3672,0h-10.1826v-3.3945h10.1826v3.3945Zm-20.3662,0h-10.1836v-3.3945h10.1836v3.3945Zm-20.3672,0h-10.1836v-3.3945h10.1836v3.3945Zm-20.3672,0h-10.1836v-3.3945h10.1836v3.3945Zm-20.3672,0h-10.1826v-3.3945h10.1826v3.3945Zm-20.3662,0h-10.1836v-3.3945h10.1836v3.3945Zm-20.3672,0h-10.1836v-3.3945h10.1836v3.3945Zm-20.3672,0h-10.1836v-3.3945h10.1836v3.3945Zm-20.3662,0h-10.1836v-3.3945h10.1836v3.3945Zm-20.3672,0h-10.1836v-3.3945h10.1836v3.3945Zm-20.3672,0h-10.1836v-3.3945h10.1836v3.3945Zm-20.3672,0h-10.1836v-3.3945h10.1836v3.3945Zm-20.3662,0h-10.1836v-3.3945h10.1836v3.3945Zm-20.3672,0h-10.1836v-3.3945h10.1836v3.3945Zm-20.3672,0h-10.1836v-3.3945h10.1836v3.3945Zm-20.3672,0h-10.1836v-3.3945h10.1836v3.3945Zm-20.3662,0h-10.1836v-3.3945h10.1836v3.3945Zm-20.3672,0h-10.1836v-3.3945h10.1836v3.3945Zm-20.3672,0h-10.1836v-3.3945h10.1836v3.3945Zm-20.3672,0h-10.1836v-3.3945h10.1836v3.3945Zm-20.3662,0h-10.1841v-3.3945h10.1841v3.3945Zm-20.3672,0h-10.1836v-3.3945h10.1836v3.3945Zm-20.3672,0h-10.1836v-3.3945h10.1836v3.3945Zm-20.3667,0h-10.1836v-3.3945h10.1836v3.3945Zm-20.3672,0h-10.1836v-3.3945h10.1836v3.3945Zm-20.3667,0h-10.1836v-3.3945h10.1836v3.3945Zm-20.3672,0h-10.1836v-3.3945h10.1836v3.3945Zm-20.3667,0h-10.1836v-3.3945h10.1836v3.3945Zm-20.3672,0h-10.1836v-3.3945h10.1836v3.3945Zm-20.3667,0h-10.1836v-3.3945h10.1836v3.3945Zm-20.3672,0h-10.1836v-3.3945h10.1836v3.3945Zm-20.3667,0h-10.1836v-3.3945h10.1836v3.3945Zm-20.3672,0h-10.1836v-3.3945h10.1836v3.3945Zm-20.3667,0h-10.1836v-3.3945h10.1836v3.3945Zm-20.3672,0h-10.1836v-3.3945h10.1836v3.3945Zm-20.3667,0h-10.1836v-3.3945h10.1836v3.3945Zm-20.3672,0h-10.1836v-3.3945h10.1836v3.3945Zm-20.3667,0h-10.1836v-3.3945h10.1836v3.3945Zm-20.3672,0h-10.1836v-3.3945h10.1836v3.3945Zm-20.3667,0h-10.1836v-3.3945h10.1836v3.3945Zm-20.3672,0h-10.1836v-3.3945h10.1836v3.3945Zm-20.3667,0h-10.1836v-3.3945h10.1836v3.3945Zm-20.3672,0h-10.1836v-3.3945h10.1836v3.3945Zm-20.3667,0h-10.1836v-3.3945h10.1836v3.3945Zm-20.3672,0h-10.1831v-3.3945h10.1831v3.3945Zm-20.3667,0h-10.1836v-3.3945h10.1836v3.3945Zm-20.3672,0h-10.1836v-3.3945h10.1836v3.3945Zm1089.8037-1.416l-.4941-3.3574c3.3115-.4883,6.6328-1.1104,9.874-1.8486l.7539,3.3105c-3.3262,.7568-6.7354,1.3945-10.1338,1.8955Zm20.0889-4.5781l-1.0107-3.2402c3.1846-.9932,6.3691-2.125,9.4648-3.3643l1.2617,3.1523c-3.1777,1.2715-6.4463,2.4326-9.7158,3.4521Zm19.125-7.6514l-1.5039-3.043c2.9883-1.4766,5.9561-3.0898,8.8213-4.7939l1.7363,2.917c-2.9404,1.749-5.9863,3.4043-9.0537,4.9199Zm17.6992-10.5283l-1.957-2.7734c2.7295-1.9268,5.4141-3.9805,7.9795-6.1045l2.1641,2.6152c-2.6318,2.1787-5.3857,4.2861-8.1865,6.2627Zm15.8682-13.1416l-2.3613-2.4395c2.4004-2.3228,4.7373-4.7656,6.9463-7.2617l2.541,2.25c-2.2666,2.5605-4.6641,5.0679-7.126,7.4512Zm13.6553-15.4316l-2.707-2.0469c2.0107-2.6606,3.9434-5.4355,5.7432-8.2471l2.8594,1.8301c-1.8477,2.8857-3.8311,5.7334-5.8955,8.4639Zm11.1162-17.3604l-2.9922-1.6025c1.5752-2.9409,3.0547-5.9824,4.3955-9.04l3.1094,1.3633c-1.377,3.1387-2.8955,6.2607-4.5127,9.2793Zm8.2861-18.8843l-3.2051-1.1162c1.0967-3.1484,2.082-6.3809,2.9297-9.6079l3.2832,.8623c-.8701,3.312-1.8818,6.6304-3.0078,9.8618Zm5.2344-19.9277l-3.3398-.6035c.5918-3.2729,1.0615-6.6196,1.3984-9.9468l3.377,.3418c-.3447,3.4146-.8281,6.8491-1.4355,10.2085Zm2.0762-20.4956l-3.3926-.0815c.0244-1.0444,.0371-2.0918,.0371-3.1421-.001-2.3057-.0625-4.6299-.1826-6.9058l3.3906-.1787c.123,2.335,.1855,4.7183,.1865,7.0835,0,1.0786-.0127,2.1533-.0391,3.2246Zm-4.4521-20.1338c-.4307-3.3032-.999-6.6343-1.6875-9.9004l3.3213-.7012c.707,3.353,1.29,6.772,1.7314,10.1631l-3.3652,.4385Zm-4.1436-19.6401c-.9424-3.2012-2.0225-6.4033-3.2109-9.5176l3.1719-1.21c1.2197,3.1968,2.3281,6.4834,3.2949,9.7695l-3.2559,.958Zm-7.1523-18.7476c-1.4307-3.0166-2.9961-6.0103-4.6523-8.8979l2.9453-1.6885c1.6992,2.9634,3.3057,6.0356,4.7734,9.1318l-3.0664,1.4546Zm-9.9824-17.4092c-1.8779-2.7544-3.8877-5.4707-5.9746-8.0742l2.6484-2.123c2.1416,2.6714,4.2041,5.459,6.1309,8.2852l-2.8047,1.9121Zm-12.5566-15.6641c-2.2852-2.437-4.6914-4.8125-7.1504-7.0601l2.29-2.5059c2.5234,2.3062,4.9912,4.7432,7.3369,7.2437l-2.4766,2.3223Zm-14.8262-13.5479c-2.6289-2.0532-5.3721-4.0298-8.1533-5.8745l1.875-2.8291c2.8555,1.8931,5.6709,3.9214,8.3682,6.0288l-2.0898,2.6748Zm-16.7402-11.0991c-2.9199-1.6245-5.9375-3.1523-8.9678-4.541l1.4141-3.0859c3.1104,1.4253,6.207,2.9937,9.2041,4.6611l-1.6504,2.9658Zm-18.2656-8.3687c-3.1348-1.1489-6.3506-2.1865-9.5596-3.085l.915-3.2686c3.2939,.9219,6.5947,1.9873,9.8125,3.166l-1.168,3.1875Zm-19.3291-5.4121c-3.2686-.645-6.6074-1.1689-9.9229-1.5581l.3945-3.3711c3.4033,.3989,6.8301,.937,10.1846,1.5991l-.6562,3.3301Zm-19.9395-2.3423c-1.7285-.0684-3.4824-.103-5.2119-.103h-4.9004v-3.3945h4.9004c1.7744,0,3.5732,.0356,5.3467,.106l-.1348,3.3916Zm-20.2959-.103h-10.1836v-3.3945h10.1836v3.3945Zm-20.3662,0h-10.1836v-3.3945h10.1836v3.3945Zm-20.3672,0h-10.1836v-3.3945h10.1836v3.3945Z" fill="#25477b" />
    </g>
    <g id="line-mask-B" class="tracing-animation-B">
        <path d="M169.9049,718.4066h-30.1456c-72.317,0-130.9415-58.6245-130.9415-130.9415s58.6245-130.9415,130.9415-130.9415H1228.2407c72.317,0,130.9415-58.6245,130.9415-130.9415s-58.6245-130.9415-130.9415-130.9415h-66.0005" fill="none" stroke="#fff" stroke-miterlimit="10" stroke-width="8" />
    </g>
    <g id="icon-step-3" class="fade-animation-3">
        <g>
            <g>
                <path d="M522.3507,700.8138h-.1445c-2.2358-35.3375-31.6215-63.2997-67.5107-63.2997-33.1318,0-60.6882,23.811-66.5242,55.2282-.7557-.0298-1.5397-.0581-2.2939-.0581-24.6813,0-45.5004,16.3474-52.2962,38.7929-1.045-.0864-2.1197-.1448-3.193-.1448-19.4834,0-35.3092,15.7961-35.3092,35.3096s15.7961,35.3078,35.2795,35.3078h191.9625c27.9338,0,50.5536-22.648,50.5536-50.5521s-22.59-50.5837-50.5238-50.5837h0Z" fill="#fff" stroke="#0078d3" stroke-linecap="round" stroke-linejoin="round" stroke-width="5.3443" />
                <path d="M450.0007,737.763v6.8777h33.6442v3.9455h0v.2511h0c0,7.5861-1.5065,12.3476-4.349,14.123-2.8425,1.7755-10.6976,2.7529-23.1438,2.7529-16.302,0-26.4168-.9774-30.147-2.9143s-5.5326-7.1108-5.5326-15.5129v-9.6844l.1166-9.0477c0-8.2945,1.6858-13.5491,4.9946-15.6115,3.3088-2.0624,11.8633-3.1384,25.3766-3.1384,14.4907,0,23.6998,.6546,27.161,1.9548,3.4613,1.3002,4.9229,4.7435,4.9229,10.1775v1.7934h11.8544v-2.7529c0-7.5681-2.6273-12.5538-7.8192-14.7238-5.1919-2.17-16.5979-3.273-34.2001-3.273s-29.4117,1.6768-35.2224,4.9946c-5.8106,3.3178-8.8415,10.1417-8.8415,20.2116v16.0061c0,11.9889,2.6901,19.8081,7.9358,23.2514,5.2457,3.4433,17.1449,5.2009,35.4196,5.2009,19.3418,0,31.4742-1.4706,36.0742-4.3849,4.6001-2.9143,6.6625-9.7023,6.9494-20.6241h0v-9.8637l-45.1937-.009Z" fill="#25477b" />
            </g>
            <path d="M358.4624,596.9421c26.5566-26.5566,61.3632-39.8349,96.1699-39.8349s69.6133,13.2783,96.1699,39.8349" fill="none" stroke="#0078d3" stroke-linecap="round" stroke-linejoin="round" stroke-width="5.3443" />
            <path d="M377.2972,615.7769c21.0881-21.0881,48.9672-32.0332,77.335-32.0332s56.2469,10.9451,77.335,32.0332" fill="none" stroke="#0078d3" stroke-linecap="round" stroke-linejoin="round" stroke-width="5.3443" />
            <path d="M396.1321,634.6118c15.6197-15.6197,36.5711-24.2316,58.5001-24.2316s42.8805,8.6119,58.5001,24.2316" fill="none" stroke="#0078d3" stroke-linecap="round" stroke-linejoin="round" stroke-width="5.3443" />
        </g>
        <path d="M213.6084,707.4131h9.8057c4.6689,0,8.1279-1.167,10.3784-3.502,2.2495-2.334,3.375-5.4326,3.375-9.2959,0-3.7354-1.1147-6.6436-3.3433-8.7236-2.2285-2.0791-5.2954-3.1201-9.2007-3.1201-3.5239,0-6.4736,.9668-8.8501,2.8975-2.3779,1.9316-3.5659,4.4473-3.5659,7.5449h-18.4014c0-4.8389,1.3052-9.1787,3.916-13.0205,2.6104-3.8418,6.2607-6.8447,10.9517-9.0098,4.6899-2.165,9.8584-3.2471,15.5044-3.2471,9.8052,0,17.4878,2.3457,23.0493,7.0352,5.5605,4.6914,8.3413,11.1543,8.3413,19.3887,0,4.2451-1.2954,8.1504-3.8843,11.7158-2.5898,3.5654-5.9854,6.3037-10.1875,8.2139,5.2212,1.8682,9.1152,4.6699,11.6841,8.4043,2.5674,3.7363,3.8521,8.1504,3.8521,13.2441,0,8.2354-3.0034,14.8359-9.0098,19.8027-6.0073,4.9658-13.9551,7.4492-23.8452,7.4492-9.2544,0-16.8208-2.4404-22.6997-7.3223-5.8794-4.8809-8.8184-11.334-8.8184-19.3564h18.4014c0,3.4814,1.3052,6.3252,3.916,8.5322,2.6104,2.207,5.8257,3.3105,9.646,3.3105,4.3716,0,7.8003-1.1562,10.2832-3.4697,2.4834-2.3135,3.7251-5.3809,3.7251-9.2012,0-9.2529-5.0938-13.8809-15.2817-13.8809h-9.7417v-14.3896Z" fill="#0078d3" />
    </g>
    <g id="line-segment-C">
        <path d="M890.1396,720.0098h-9.6191v-3.207h9.6191v3.207Zm-19.2393,0h-9.6201v-3.207h9.6201v3.207Zm-19.2393,0h-9.6201v-3.207h9.6201v3.207Zm-19.2402,0h-9.6191v-3.207h9.6191v3.207Zm-19.2393,0h-9.6201v-3.207h9.6201v3.207Zm-19.2393,0h-9.6201v-3.207h9.6201v3.207Zm-19.2402,0h-9.6191v-3.207h9.6191v3.207Zm-19.2393,0h-9.6201v-3.207h9.6201v3.207Zm-19.2393,0h-9.6201v-3.207h9.6201v3.207Zm-19.2402,0h-9.6191v-3.207h9.6191v3.207Zm-19.2393,0h-9.6201v-3.207h9.6201v3.207Zm-19.2397,0h-9.6196v-3.207h9.6196v3.207Zm-19.2397,0h-9.6196v-3.207h9.6196v3.207Zm-19.2393,0h-9.6201v-3.207h9.6201v3.207Zm-19.2397,0h-9.6196v-3.207h9.6196v3.207Zm-19.2397,0h-9.6196v-3.207h9.6196v3.207Z" fill="#25477b" />
    </g>
    <g id="line-mask-C" class="tracing-animation-C">
        <line x1="894.0137" y1="718.4066" x2="591.9261" y2="718.4066" fill="none" stroke="#fff" stroke-miterlimit="10" stroke-width="8" />
    </g>
    <g id="icon-step-4" class="fade-animation-4">
        <g>
            <g>
                <path d="M1298.9303,610.9291c0-10.2118-8.2782-18.4899-18.49-18.4899h-219.372c-10.2118,0-18.4901,8.2782-18.4901,18.4899v17.7499h256.352v-17.7499Z" fill="#fff" stroke="#25477b" stroke-linecap="round" stroke-linejoin="round" stroke-width="5.3443" />
                <path d="M1042.5783,628.6791v149.0249c0,10.2118,8.2783,18.4899,18.4901,18.4899h219.372c10.2118,0,18.49-8.2782,18.49-18.4899v-149.0249h-256.352Z" fill="#fff" stroke="#25477b" stroke-linecap="round" stroke-linejoin="round" stroke-width="5.3443" />
                <circle cx="1061.6788" cy="610.5591" r="1.5817" fill="none" stroke="#0078d3" stroke-linecap="round" stroke-linejoin="round" stroke-width="5.3443" />
                <circle cx="1074.1541" cy="610.5591" r="1.5817" fill="none" stroke="#0078d3" stroke-linecap="round" stroke-linejoin="round" stroke-width="5.3443" />
                <circle cx="1087.3531" cy="610.5591" r="1.5817" fill="none" stroke="#0078d3" stroke-linecap="round" stroke-linejoin="round" stroke-width="5.3443" />
                <g>
                    <g>
                        <path d="M1206.921,747.7081c-4.5022,8.2879-13.2832,13.9141-23.3782,13.9141" fill="none" stroke="#0078d3" stroke-linecap="round" stroke-linejoin="round" stroke-width="5.3443" />
                        <line x1="1214.2551" y1="732.7831" x2="1187.339" y2="677.5968" fill="none" stroke="#0078d3" stroke-linecap="round" stroke-linejoin="round" stroke-width="5.3443" />
                        <line x1="1206.921" y1="747.7081" x2="1241.1713" y2="677.5968" fill="none" stroke="#0078d3" stroke-linecap="round" stroke-linejoin="round" stroke-width="5.3443" />
                    </g>
                    <g>
                        <g>
                            <line x1="1100.3374" y1="732.7023" x2="1100.3374" y2="663.2508" fill="none" stroke="#0078d3" stroke-linecap="round" stroke-linejoin="round" stroke-width="5.3443" />
                            <line x1="1133.7676" y1="714.7288" x2="1100.3374" y2="663.2508" fill="none" stroke="#0078d3" stroke-linecap="round" stroke-linejoin="round" stroke-width="5.3443" />
                        </g>
                        <g>
                            <line x1="1167.1978" y1="732.7023" x2="1167.1978" y2="663.2508" fill="none" stroke="#0078d3" stroke-linecap="round" stroke-linejoin="round" stroke-width="5.3443" />
                            <line x1="1133.7676" y1="714.7288" x2="1167.1978" y2="663.2508" fill="none" stroke="#0078d3" stroke-linecap="round" stroke-linejoin="round" stroke-width="5.3443" />
                        </g>
                    </g>
                </g>
            </g>
            <path d="M1062.3334,821.7311l33.3076-53.5033c1.0421-1.6739-.2741-3.8191-2.2385-3.6484l-62.7872,5.4559c-2.1198,.1842-2.9627,2.8364-1.3382,4.2106l15.3952,13.0234-30.6527,18.807c-3.8998,2.3927-5.1215,7.4939-2.7288,11.3937h0c2.3927,3.8998,7.4939,5.1216,11.3937,2.7288l30.6527-18.807,4.6362,19.6248c.4892,2.0708,3.2355,2.5208,4.36,.7144Z" fill="#fff" stroke="#0078d3" stroke-linecap="round" stroke-linejoin="round" stroke-width="5.3443" />
        </g>
        <path d="M970.6934,727.0254h10.5059v14.8359h-10.5059v20.0566h-18.4014v-20.0566h-38.0127l-.8281-11.5889,38.6494-61.0615h18.5928v57.8145Zm-38.9043,0h20.5029v-32.7275l-1.21,2.1006-19.293,30.627Z" fill="#0078d3" />
    </g>
</svg>